<?xml version="1.0" encoding="UTF-8"?>
<svg id="Producent_logo" xmlns="http://www.w3.org/2000/svg" version="1.1" viewBox="0 0 581.1 354.33">
  <!-- Generator: Adobe Illustrator 30.2.1, SVG Export Plug-In . SVG Version: 2.1.1 Build 1)  -->
  <path id="N" d="M544.69,115.91v96.82c0,6.99-1.55,11.69-4.15,12.58-2.75.94-8.5-2-15.15-10.66-8.74-11.38-68.91-99.77-69.51-100.65l-1.01-1.46h-9.11v119.7h6.75v-111.26c11.09,16.05,59.55,87.37,67.54,97.77,6.77,8.82,13.51,13.48,19.34,13.48,1.15,0,2.26-.18,3.32-.54,3.98-1.35,8.72-5.74,8.72-18.96v-96.82h-6.75Z"/>
  <polygon id="E" points="328.55 168.14 395.4 168.14 395.4 161.39 328.55 161.39 328.55 121.73 407.31 121.73 407.31 114.98 321.81 114.98 321.81 232.26 407.62 232.26 407.62 225.51 328.55 225.51 328.55 168.14"/>
  <path id="B" d="M249.96,162.26c8.55-4.76,13.26-13.07,13.26-24,0-10.3-4.96-16.43-9.13-19.76-4.66-3.73-10.96-5.95-16.84-5.95h-60.47v119.71h56.5c36.14,0,41.54-22.96,41.54-36.65,0-19.99-9.56-28.77-24.86-33.35ZM237.25,119.29c7.43,0,19.22,5.15,19.22,18.96,0,8.33-3.4,18.76-19.51,21.26l-53.44.33v-40.56h53.72ZM233.28,225.51h-49.75v-58.92l53.44-.33c23.24,3.87,31.1,11.29,31.1,29.34,0,19.85-11.71,29.91-34.79,29.91Z"/>
  <path id="_Å" data-name="Å" d="M93.94,116.35c6.78-4.35,11.29-11.95,11.29-20.59,0-13.48-10.96-24.44-24.44-24.44s-24.44,10.96-24.44,24.44c0,8.64,4.51,16.24,11.29,20.59-12.18,4.54-19.49,15.19-21.61,25.77-2.72,13.61-16.23,88.99-16.37,89.74l6.51.07c.06-.35,3.07-16.69,6.53-35.4h76.18c3.46,18.71,6.46,35.05,6.53,35.4h7.1c-.14-.74-14.24-76.2-16.96-89.81-2.12-10.58-9.43-21.23-21.61-25.77ZM63.1,95.76c0-9.76,7.94-17.69,17.69-17.69s17.69,7.94,17.69,17.69-7.94,17.69-17.69,17.69-17.69-7.94-17.69-17.69ZM43.95,189.79c3.62-19.54,7.41-39.87,8.7-46.34,2.25-11.26,11.83-22.63,28.14-22.63s25.89,11.37,28.14,22.63c1.3,6.48,5.08,26.8,8.7,46.34H43.95Z"/>
</svg>